<?xml version="1.0" encoding="utf-8"?>
<!-- Generator: Adobe Illustrator 24.1.2, SVG Export Plug-In . SVG Version: 6.00 Build 0)  -->
<svg version="1.1" id="Layer_1" xmlns="http://www.w3.org/2000/svg" xmlns:xlink="http://www.w3.org/1999/xlink" x="0px" y="0px"
	 viewBox="0 0 93.4 17.4" style="enable-background:new 0 0 93.4 17.4;" xml:space="preserve">
<g>
	<path d="M10.7,8.9c0,0.8,0,1.2,0,1.4c-0.1,0.5-0.2,1-0.4,1.3c-0.6,0.9-1.5,1.4-2.6,1.4H5.2c0,0-0.1,0-0.1,0V4.8c0,0,0-0.1,0.1-0.1
		h2.5c1.2,0,2,0.5,2.5,1.4c0.2,0.3,0.3,0.7,0.4,1C10.7,7.4,10.7,8,10.7,8.9z M9.4,8.9c0-0.8,0-1.3-0.1-1.6c0-0.3-0.1-0.5-0.3-0.8
		C8.7,6.1,8.2,5.9,7.5,5.9H6.4v6h1.2c0.7,0,1.2-0.2,1.5-0.7c0.1-0.2,0.2-0.4,0.3-0.7C9.4,10.2,9.4,9.7,9.4,8.9z M17.5,13
		C17.5,13,17.5,13.1,17.5,13l-4.9,0.1c0,0-0.1,0-0.1,0V4.8c0,0,0-0.1,0-0.1h4.9c0,0,0.1,0,0.1,0.1v1.1c0,0,0,0.1-0.1,0.1h-3.7v2.4
		h3.1c0,0,0.1,0,0.1,0v1.1c0,0,0,0.1-0.1,0.1h-3.1v2.4h3.7c0,0,0.1,0,0.1,0V13z M20.2,10.9c0.1,0.3,0.3,0.6,0.6,0.9
		c0.3,0.2,0.6,0.3,1,0.3c0.4,0,0.7-0.1,1.1-0.3c0.3-0.2,0.5-0.5,0.5-0.9c0-0.7-0.5-1.1-1.5-1.2c-2-0.3-2.9-1.1-2.9-2.5
		c0-0.7,0.3-1.3,0.9-1.8c0.6-0.5,1.2-0.7,2-0.7c0.7,0,1.3,0.2,1.9,0.7s0.9,1,1,1.7c0,0,0,0.1-0.1,0.1h-1.2c0,0,0,0-0.1,0
		c-0.3-0.8-0.8-1.2-1.6-1.2c-0.4,0-0.8,0.1-1.1,0.3c-0.3,0.2-0.5,0.5-0.5,0.9c0,0.7,0.5,1.1,1.5,1.2c0.9,0.1,1.6,0.3,2,0.7
		c0.6,0.4,0.9,1,0.9,1.8c0,0.7-0.3,1.3-0.9,1.8c-0.6,0.4-1.2,0.7-2,0.7c-0.6,0-1.2-0.2-1.7-0.5c-0.5-0.3-0.9-0.8-1.1-1.3
		c-0.1-0.2-0.1-0.4-0.2-0.6c0,0,0-0.1,0.1-0.1L20.2,10.9C20.1,10.8,20.2,10.8,20.2,10.9z M27.8,13C27.8,13,27.8,13.1,27.8,13
		l-1.2,0.1c0,0-0.1,0-0.1,0V4.8c0,0,0-0.1,0-0.1h1.2c0,0,0.1,0,0.1,0.1V13z M35.6,10.3c0,0.8-0.3,1.5-0.9,2.1s-1.3,0.9-2.1,0.9
		c-0.6,0-1.2-0.2-1.7-0.5c-0.4-0.3-0.7-0.6-1-1c-0.1-0.3-0.2-0.6-0.3-0.9c-0.1-0.4-0.1-1-0.1-2c0-1,0-1.6,0.1-2
		c0-0.3,0.1-0.6,0.3-0.9c0.2-0.4,0.5-0.8,1-1c0.5-0.3,1-0.5,1.7-0.5c0.8,0,1.4,0.2,1.9,0.7c0.5,0.4,0.8,1,1,1.7c0,0,0,0.1,0,0.1
		h-1.2c0,0-0.1,0-0.1-0.1c-0.1-0.2-0.2-0.5-0.4-0.7c-0.3-0.3-0.7-0.5-1.2-0.5c-0.5,0-1,0.2-1.3,0.6C31.2,6.7,31,6.9,31,7.2
		c-0.1,0.3-0.1,0.9-0.1,1.7c0,0.8,0,1.4,0.1,1.7c0.1,0.3,0.2,0.5,0.4,0.8c0.3,0.4,0.7,0.6,1.3,0.6c0.5,0,0.9-0.2,1.2-0.5
		s0.5-0.8,0.5-1.3V9.5h-1.6c0,0-0.1,0-0.1,0V8.4c0,0,0-0.1,0.1-0.1h2.9c0,0,0.1,0,0.1,0V10.3z M43.2,13C43.2,13,43.2,13.1,43.2,13
		l-1.2,0.1c0,0,0,0-0.1,0l-3.3-5.7V13c0,0,0,0.1,0,0.1h-1.2c0,0-0.1,0-0.1,0V4.8c0,0,0-0.1,0.1-0.1h1.1c0,0,0,0,0,0l3.3,5.7V4.8
		c0,0,0-0.1,0.1-0.1h1.2c0,0,0.1,0,0.1,0.1V13z M50.2,13C50.2,13,50.1,13.1,50.2,13l-4.9,0.1c0,0-0.1,0-0.1,0V4.8c0,0,0-0.1,0-0.1
		h4.9c0,0,0.1,0,0.1,0.1v1.1c0,0,0,0.1-0.1,0.1h-3.7v2.4h3.1c0,0,0.1,0,0.1,0v1.1c0,0,0,0.1-0.1,0.1h-3.1v2.4h3.7c0,0,0.1,0,0.1,0
		V13z M57.9,13C57.9,13,57.9,13.1,57.9,13l-1.4,0.1c0,0,0,0-0.1,0l-1.7-3.5h-1.5V13c0,0,0,0.1-0.1,0.1h-1.2c0,0-0.1,0-0.1,0V4.8
		c0,0,0-0.1,0-0.1h3.2c0.8,0,1.3,0.2,1.7,0.5c0.5,0.5,0.8,1.1,0.8,1.8c0,1.2-0.6,2-1.7,2.3L57.9,13z M56.5,7.1
		c0-0.8-0.5-1.2-1.4-1.2h-1.9v2.4h1.8c0.5,0,0.8-0.1,1.1-0.3C56.4,7.7,56.5,7.5,56.5,7.1z M65.1,8.9c0,0.8,0,1.2,0,1.4
		c-0.1,0.5-0.2,1-0.4,1.3c-0.6,0.9-1.5,1.4-2.6,1.4h-2.4c0,0-0.1,0-0.1,0V4.8c0,0,0-0.1,0.1-0.1h2.5c1.2,0,2,0.5,2.5,1.4
		c0.2,0.3,0.3,0.7,0.4,1C65.1,7.4,65.1,8,65.1,8.9z M63.9,8.9c0-0.8,0-1.3-0.1-1.6c0-0.3-0.1-0.5-0.3-0.8c-0.4-0.5-0.8-0.7-1.5-0.7
		h-1.2v6H62c0.7,0,1.2-0.2,1.5-0.7c0.1-0.2,0.2-0.4,0.3-0.7C63.8,10.2,63.9,9.7,63.9,8.9z M72.7,8.9c0,1,0,1.6-0.1,2
		c0,0.3-0.1,0.6-0.3,0.9c-0.2,0.4-0.6,0.8-1,1c-0.5,0.3-1,0.5-1.6,0.5s-1.2-0.2-1.7-0.5c-0.4-0.3-0.7-0.6-1-1
		c-0.1-0.3-0.2-0.6-0.3-0.9c-0.1-0.4-0.1-1-0.1-2c0-1,0-1.6,0.1-2c0-0.3,0.1-0.6,0.3-0.9c0.2-0.4,0.6-0.8,1-1c0.5-0.3,1-0.5,1.6-0.5
		c0.6,0,1.2,0.2,1.6,0.5c0.4,0.3,0.7,0.6,1,1c0.1,0.3,0.2,0.6,0.3,0.9C72.7,7.3,72.7,8,72.7,8.9z M71.4,8.9c0-0.7,0-1.1,0-1.3
		c-0.1-0.5-0.2-0.9-0.4-1.2c-0.3-0.4-0.7-0.6-1.3-0.6c-0.5,0-1,0.2-1.3,0.6c-0.2,0.3-0.4,0.7-0.4,1.2c0,0.2,0,0.6,0,1.3
		c0,0.7,0,1.1,0,1.3c0.1,0.5,0.2,0.9,0.4,1.2c0.3,0.4,0.7,0.6,1.3,0.6c0.5,0,1-0.2,1.3-0.6c0.2-0.3,0.4-0.7,0.4-1.2
		C71.4,10,71.4,9.6,71.4,8.9z M80.2,10.9c-0.1,0.6-0.4,1.2-0.8,1.6c-0.6,0.6-1.3,0.8-2.1,0.8c-0.6,0-1.2-0.2-1.7-0.5
		c-0.4-0.3-0.7-0.6-1-1c-0.1-0.3-0.2-0.6-0.3-0.9c-0.1-0.4-0.1-1-0.1-2c0-1,0-1.6,0.1-2c0-0.3,0.1-0.6,0.3-0.9c0.2-0.4,0.6-0.8,1-1
		c0.5-0.3,1-0.5,1.7-0.5c0.9,0,1.6,0.3,2.2,0.9c0.4,0.4,0.6,0.9,0.7,1.5c0,0,0,0.1-0.1,0.1H79c-0.1,0-0.1,0-0.1-0.1
		c0-0.2-0.1-0.4-0.3-0.6c-0.3-0.4-0.7-0.5-1.3-0.5c-0.6,0-1,0.2-1.4,0.7c-0.1,0.2-0.2,0.4-0.3,0.7c0,0.3-0.1,0.9-0.1,1.6
		c0,0.7,0,1.2,0,1.3c0,0.5,0.2,0.9,0.4,1.2c0.3,0.4,0.8,0.6,1.3,0.6c0.4,0,0.8-0.1,1.1-0.4c0.2-0.2,0.4-0.5,0.5-0.7
		c0-0.1,0.1-0.1,0.1-0.1L80.2,10.9C80.2,10.8,80.2,10.9,80.2,10.9z M87.6,4.8l-2,4.1l2.1,4.1c0,0.1,0,0.1-0.1,0.1h-1.3
		c0,0,0,0-0.1,0l-1.7-3.5H83V13c0,0,0,0.1-0.1,0.1h-1.2c0,0-0.1,0-0.1,0V4.8c0,0,0-0.1,0-0.1h1.2c0,0,0.1,0,0.1,0.1v3.5h1.5l1.7-3.6
		c0,0,0,0,0,0h1.3C87.6,4.7,87.6,4.7,87.6,4.8z"/>
</g>
</svg>
