<svg xmlns="http://www.w3.org/2000/svg" width="14.16" height="10.62" viewBox="0 0 14.16 10.62">
  <path id="envelope-solid" d="M13.891,67.507a.166.166,0,0,1,.268.13v5.656a1.328,1.328,0,0,1-1.327,1.327H1.327A1.328,1.328,0,0,1,0,73.292V67.639a.165.165,0,0,1,.268-.13c.619.481,1.441,1.092,4.262,3.142a4.948,4.948,0,0,0,2.55,1.316,4.95,4.95,0,0,0,2.553-1.316C12.453,68.6,13.272,67.988,13.891,67.507ZM7.08,71.08c.642.011,1.565-.808,2.03-1.145,3.67-2.663,3.949-2.9,4.8-3.559a.662.662,0,0,0,.254-.523v-.525A1.328,1.328,0,0,0,12.832,64H1.327A1.328,1.328,0,0,0,0,65.327v.525a.666.666,0,0,0,.254.523c.846.661,1.126.9,4.8,3.559.465.337,1.388,1.156,2.03,1.145Z" transform="translate(0 -64)" fill="#fff"/>
</svg>
