<svg xmlns="http://www.w3.org/2000/svg" width="11.208" height="11.208" viewBox="0 0 11.208 11.208">
  <path id="Path_40" data-name="Path 40" d="M5.6,1a17.183,17.183,0,0,1,2.242.062A2.888,2.888,0,0,1,8.9,1.245,2.187,2.187,0,0,1,9.963,2.3a2.888,2.888,0,0,1,.187,1.059c0,.56.062.747.062,2.242a17.184,17.184,0,0,1-.062,2.242A2.888,2.888,0,0,1,9.963,8.9,2.187,2.187,0,0,1,8.9,9.963a2.888,2.888,0,0,1-1.059.187c-.56,0-.747.062-2.242.062a17.184,17.184,0,0,1-2.242-.062A2.888,2.888,0,0,1,2.3,9.963,2.187,2.187,0,0,1,1.245,8.9a2.888,2.888,0,0,1-.187-1.059C1.059,7.285,1,7.1,1,5.6a17.183,17.183,0,0,1,.062-2.242A2.888,2.888,0,0,1,1.245,2.3a2.236,2.236,0,0,1,.436-.623A1.053,1.053,0,0,1,2.3,1.245a2.888,2.888,0,0,1,1.059-.187A17.183,17.183,0,0,1,5.6,1m0-1A18.4,18.4,0,0,0,3.3.062,3.844,3.844,0,0,0,1.93.311a2.438,2.438,0,0,0-1,.623,2.438,2.438,0,0,0-.623,1A2.837,2.837,0,0,0,.062,3.3,18.4,18.4,0,0,0,0,5.6a18.4,18.4,0,0,0,.062,2.3,3.844,3.844,0,0,0,.249,1.37,2.438,2.438,0,0,0,.623,1,2.438,2.438,0,0,0,1,.623,3.844,3.844,0,0,0,1.37.249,18.4,18.4,0,0,0,2.3.062,18.4,18.4,0,0,0,2.3-.062,3.844,3.844,0,0,0,1.37-.249A2.612,2.612,0,0,0,10.9,9.278a3.844,3.844,0,0,0,.249-1.37c0-.623.062-.809.062-2.3a18.4,18.4,0,0,0-.062-2.3A3.844,3.844,0,0,0,10.9,1.93a2.438,2.438,0,0,0-.623-1,2.438,2.438,0,0,0-1-.623A3.844,3.844,0,0,0,7.908.062,18.4,18.4,0,0,0,5.6,0m0,2.74A2.818,2.818,0,0,0,2.74,5.6,2.864,2.864,0,1,0,5.6,2.74m0,4.732A1.835,1.835,0,0,1,3.736,5.6,1.835,1.835,0,0,1,5.6,3.736,1.835,1.835,0,0,1,7.472,5.6,1.835,1.835,0,0,1,5.6,7.472M8.593,1.93a.685.685,0,1,0,.685.685.691.691,0,0,0-.685-.685" fill="#fff" fill-rule="evenodd"/>
</svg>
