<svg xmlns="http://www.w3.org/2000/svg" width="14.278" height="14" viewBox="0 0 14.278 14"><g transform="translate(0.345 -0.116)"><rect width="14" height="14" transform="translate(-0.345 0.116)" fill="none"/><path d="M13.708,12.586,9.746,8.663a5.3,5.3,0,0,0,1.083-3.249A5.381,5.381,0,0,0,5.415,0,5.381,5.381,0,0,0,0,5.415a5.381,5.381,0,0,0,5.415,5.415A5.3,5.3,0,0,0,8.663,9.746l3.962,3.923ZM1.547,5.415A3.83,3.83,0,0,1,5.415,1.547,3.83,3.83,0,0,1,9.282,5.415,3.83,3.83,0,0,1,5.415,9.282,3.83,3.83,0,0,1,1.547,5.415Z" transform="translate(0.225 0.229)" fill="#ddd"/></g></svg>