<svg xmlns="http://www.w3.org/2000/svg" width="11.208" height="9.091" viewBox="0 0 11.208 9.091">
  <path id="Path_39" data-name="Path 39" d="M41.549,11.091a6.48,6.48,0,0,0,6.538-6.538V4.242a5.061,5.061,0,0,0,1.121-1.183,5.169,5.169,0,0,1-1.308.374,2.423,2.423,0,0,0,1-1.245,5.711,5.711,0,0,1-1.432.56A2.224,2.224,0,0,0,45.783,2a2.339,2.339,0,0,0-2.3,2.3,1.214,1.214,0,0,0,.062.5,6.438,6.438,0,0,1-4.732-2.428A2.385,2.385,0,0,0,38.5,3.557a2.474,2.474,0,0,0,1,1.93,2.1,2.1,0,0,1-1.059-.311h0A2.276,2.276,0,0,0,40.3,7.417a1.919,1.919,0,0,1-.623.062,1.06,1.06,0,0,1-.436-.062,2.359,2.359,0,0,0,2.179,1.619,4.7,4.7,0,0,1-2.864,1A1.724,1.724,0,0,1,38,9.97a5.877,5.877,0,0,0,3.549,1.121" transform="translate(-38 -2)" fill="#fff" fill-rule="evenodd"/>
</svg>
