<svg xmlns="http://www.w3.org/2000/svg" width="9.604" height="11.208" viewBox="0 0 9.604 11.208">
  <path id="xing-brands" d="M4.094,36.452q-.068.124-1.753,3.089a.526.526,0,0,1-.443.313H.27a.238.238,0,0,1-.213-.36L1.783,36.46q.008,0,0-.008l-1.1-1.891A.222.222,0,0,1,.9,34.209H2.526a.518.518,0,0,1,.45.305Zm5.5-4.1-3.6,6.328v.008l2.291,4.167a.224.224,0,0,1-.213.353H6.44a.5.5,0,0,1-.45-.305L3.679,38.688,7.3,32.305A.5.5,0,0,1,7.739,32H9.382A.228.228,0,0,1,9.594,32.353Z" transform="translate(-0.025 -32)" fill="#fff"/>
</svg>
